<svg id="Capa_3" data-name="Capa 3" xmlns="http://www.w3.org/2000/svg" xmlns:xlink="http://www.w3.org/1999/xlink" viewBox="0 0 375 199"><defs><style>.cls-1{fill:url(#Degradado_sin_nombre_10);}.cls-2{fill:url(#Degradado_sin_nombre_10-2);}.cls-3{fill:url(#Degradado_sin_nombre_10-3);}.cls-4{fill:url(#Degradado_sin_nombre_10-4);}.cls-5{fill:url(#Degradado_sin_nombre_10-5);}.cls-6{fill:url(#Degradado_sin_nombre_10-6);}.cls-7{fill:url(#Degradado_sin_nombre_10-7);}.cls-8{fill:url(#Degradado_sin_nombre_10-8);}.cls-9{fill:url(#Degradado_sin_nombre_10-9);}.cls-10{fill:url(#Degradado_sin_nombre_10-10);}.cls-11{fill:url(#Degradado_sin_nombre_10-11);}.cls-12{fill:#fff;}.cls-13{font-size:22px;font-family:Albori;letter-spacing:0.42em;}.cls-14{letter-spacing:0.43em;}.cls-15{letter-spacing:0.44em;}.cls-16{letter-spacing:0.42em;}.cls-17{letter-spacing:0.44em;}</style><linearGradient id="Degradado_sin_nombre_10" x1="1.91" y1="108.05" x2="90.35" y2="108.05" gradientUnits="userSpaceOnUse"><stop offset="0" stop-color="#fbc2eb"/><stop offset="1" stop-color="#a6c1ee"/></linearGradient><linearGradient id="Degradado_sin_nombre_10-2" x1="79.47" y1="81.42" x2="151.13" y2="81.42" xlink:href="#Degradado_sin_nombre_10"/><linearGradient id="Degradado_sin_nombre_10-3" x1="82.47" y1="81.42" x2="148.14" y2="81.42" xlink:href="#Degradado_sin_nombre_10"/><linearGradient id="Degradado_sin_nombre_10-4" x1="126.93" y1="73.07" x2="222.39" y2="73.07" xlink:href="#Degradado_sin_nombre_10"/><linearGradient id="Degradado_sin_nombre_10-5" x1="129.93" y1="73.07" x2="219.4" y2="73.07" xlink:href="#Degradado_sin_nombre_10"/><linearGradient id="Degradado_sin_nombre_10-6" x1="198.83" y1="80.81" x2="270.96" y2="80.81" xlink:href="#Degradado_sin_nombre_10"/><linearGradient id="Degradado_sin_nombre_10-7" x1="201.83" y1="80.81" x2="267.97" y2="80.81" xlink:href="#Degradado_sin_nombre_10"/><linearGradient id="Degradado_sin_nombre_10-8" x1="259.98" y1="90.91" x2="333.38" y2="90.91" xlink:href="#Degradado_sin_nombre_10"/><linearGradient id="Degradado_sin_nombre_10-9" x1="262.97" y1="90.91" x2="330.38" y2="90.91" xlink:href="#Degradado_sin_nombre_10"/><linearGradient id="Degradado_sin_nombre_10-10" x1="313.43" y1="108.97" x2="368.52" y2="108.97" xlink:href="#Degradado_sin_nombre_10"/><linearGradient id="Degradado_sin_nombre_10-11" x1="316.43" y1="108.97" x2="365.53" y2="108.97" xlink:href="#Degradado_sin_nombre_10"/></defs><title>Logo1Mesa de trabajo 1</title><path class="cls-1" d="M81.88,121.4a59.57,59.57,0,0,0-11.45-12.9A130.54,130.54,0,0,0,57,98.54a108.86,108.86,0,0,0-13.09-7.27c-3.75-1.75-7-3.41-9.33-4.81a22.7,22.7,0,0,1-7.28-7.6,27.41,27.41,0,0,1-4.07-12A23.81,23.81,0,0,1,26,53.7c2.28-4.48,6.67-8.26,13-11.23S51.16,37.9,55.56,37.9l.69,0c4.23.16,7.61,1.07,10,2.7a15.1,15.1,0,0,1,5.25,5.74l.4.81c1.13,2.28,2.11,4.24,2.7,5.73A5.64,5.64,0,0,0,80,56.78a7.24,7.24,0,0,0,1.12-.09,9.25,9.25,0,0,0,6-4.15,14,14,0,0,0,2.23-8.34,14.32,14.32,0,0,0-.93-4.73l1.9.49-4.8-6.69c-2.17-3-5.64-5.23-10.32-6.54a40.92,40.92,0,0,0-6.78-1.25c-.42-.05-.84-.08-1.26-.12l-.88-.07c-.86-.05-1.73-.07-2.62-.08h-.58c-.79,0-1.59,0-2.4.06h-.19a72.15,72.15,0,0,0-16.71,3A69.85,69.85,0,0,0,28,35a46.31,46.31,0,0,0-12,10.36,64.67,64.67,0,0,0-8.82,13.9A57.72,57.72,0,0,0,2.41,75.11,41,41,0,0,0,3,91a34.21,34.21,0,0,0,7,13.71,37.29,37.29,0,0,0,13.68,10,146.51,146.51,0,0,1,19.82,10.53,80.26,80.26,0,0,1,12.88,10.14A37.37,37.37,0,0,1,63.57,145a27.46,27.46,0,0,1,2.81,9.57,17.17,17.17,0,0,1-1.61,8.95,29.19,29.19,0,0,1-5.88,8.44A30.23,30.23,0,0,1,50.4,178a17.53,17.53,0,0,1-6.74,1.79l-.93,0c-.39,0-.77,0-1.15,0a12.86,12.86,0,0,1-6.19-1.81,15.86,15.86,0,0,1-4.3-4.17,17.17,17.17,0,0,1-2.46-5.16,21.12,21.12,0,0,1-.9-4.82,31,31,0,0,0-.87-7.51c-.4-1.35-1.33-4.5-4.14-4.9l-.29,0h-.21c-3.32,0-4.09,3.84-4.34,5.1-.44,2.22-.31,5.53-.12,10.15.32,7.78,2.11,13.34,5.47,17a21.77,21.77,0,0,0,12.85,6.9,31.16,31.16,0,0,0,5,.39,39.93,39.93,0,0,0,10.47-1.51A57,57,0,0,0,67,182.56,54.3,54.3,0,0,0,80.14,171a39.49,39.49,0,0,0,8.16-16.37,39,39,0,0,0,.14-17.66A47.92,47.92,0,0,0,81.88,121.4Z"/><path class="cls-2" d="M94.54,118.65a10.68,10.68,0,0,1-2.1-.21c-3.1-.62-5.82-2.93-8.33-7a32.44,32.44,0,0,1-4.58-19A56,56,0,0,1,84.44,72.2,60.47,60.47,0,0,1,95.72,55.26c4.66-4.88,9.39-8.07,14-9.47a34,34,0,0,1,9.56-1.61c.36,0,.71,0,1.06,0A21.61,21.61,0,0,1,128,45.83a15.53,15.53,0,0,1,5.05,3.42,9.54,9.54,0,0,1,2.7,4.72,6.59,6.59,0,0,1-.53,3.62,7.15,7.15,0,0,1-2.25,3,5.4,5.4,0,0,1-3.31,1.14,5.86,5.86,0,0,1-1-.09,6.38,6.38,0,0,1-4.06-3.2c-.11-.17-.35-.54-1.27-.54a3.88,3.88,0,0,0-.57.05A15.13,15.13,0,0,0,117,60.31a36.76,36.76,0,0,0-6.72,5.54,31.6,31.6,0,0,0-5.08,6.78,49.5,49.5,0,0,0-4,10.13,79.5,79.5,0,0,0-2.44,11.59,49.34,49.34,0,0,0-.42,9.43,10,10,0,0,0,.18,1.38,6.06,6.06,0,0,0,.57-.57,27.35,27.35,0,0,0,3.66-5.5,62.93,62.93,0,0,0,3.51-8.19c1.28-3.65,2.23-6.65,3-9.46a39.62,39.62,0,0,1,4.22-10.67,18.66,18.66,0,0,1,5.41-5.88,11.06,11.06,0,0,1,6.06-2,13.52,13.52,0,0,1,4.56.71,8.82,8.82,0,0,1,5.47,6.54,28.36,28.36,0,0,1,.6,8.87c-.22,3-.63,6.37-1.21,10s-1.17,6.89-1.81,10.2a.36.36,0,0,1,0,.1,35.5,35.5,0,0,0,4.82-5.56c.81-1.12,1.52-2.19,2.11-3.2l-.7-.17,1.22-3.2c1.22-3.18,2.76-5.33,4.72-6.57a4.59,4.59,0,0,1,2.48-.77,3.78,3.78,0,0,1,2.92,1.35c.67.79,1.37,2.25,1,4.79-.58,3.55-2.58,7.46-4.26,10.46a56,56,0,0,1-6.58,9.37,44.25,44.25,0,0,1-8.08,7.28,21,21,0,0,1-9.63,3.73,11.07,11.07,0,0,1-1.38.08,7.34,7.34,0,0,1-7.28-4.63,23.41,23.41,0,0,1-1.3-9.74v0A70.75,70.75,0,0,1,108.4,109a30,30,0,0,1-7.07,7.37A11.75,11.75,0,0,1,94.54,118.65Z"/><path class="cls-3" d="M142.74,88.23c1-2.53,2.14-4.23,3.51-5.1s2.16.16,1.8,2.35c-.47,2.87-2.12,6.25-3.92,9.48a52.6,52.6,0,0,1-6.23,8.85,40.25,40.25,0,0,1-7.51,6.79,17.92,17.92,0,0,1-8.26,3.22c-2.83.31-4.68-.57-5.55-2.7a20.3,20.3,0,0,1-1.08-8.47q.24-5.27,1.13-11.68t1.44-12.35a36.9,36.9,0,0,1-2.15,8.93,92,92,0,0,1-4.35,10.28,68.57,68.57,0,0,1-5.61,9.41,27.17,27.17,0,0,1-6.36,6.65A8.27,8.27,0,0,1,93,115.5c-2.22-.45-4.33-2.33-6.36-5.66a29.34,29.34,0,0,1-4.14-17.32,52.75,52.75,0,0,1,4.64-19.08A57.52,57.52,0,0,1,97.89,57.33c4.37-4.58,8.68-7.45,12.74-8.66a29.28,29.28,0,0,1,9.59-1.47,18.93,18.93,0,0,1,6.6,1.37,12.31,12.31,0,0,1,4.08,2.75,6.94,6.94,0,0,1,1.93,3.17,3.86,3.86,0,0,1-.36,2,4.12,4.12,0,0,1-1.31,1.73,2.38,2.38,0,0,1-2,.48,3.73,3.73,0,0,1-2.07-1.86A4.52,4.52,0,0,0,122.35,55a18.06,18.06,0,0,0-7,2.82,39.56,39.56,0,0,0-7.26,6,34.75,34.75,0,0,0-5.56,7.43,52.86,52.86,0,0,0-4.29,10.74,81.05,81.05,0,0,0-2.53,12,51,51,0,0,0-.44,10c.2,2.85,1,4.3,2.08,4.5s2.5-.35,3.89-1.88a30.57,30.57,0,0,0,4.08-6.12,64.38,64.38,0,0,0,3.69-8.6c1.12-3.19,2.18-6.44,3-9.67A38.23,38.23,0,0,1,116,72.37a16,16,0,0,1,4.52-5,8.21,8.21,0,0,1,4.45-1.51,10.38,10.38,0,0,1,3.49.53,5.89,5.89,0,0,1,3.6,4.45,25.21,25.21,0,0,1,.51,7.92c-.21,3-.61,6.25-1.17,9.72s-1.17,6.86-1.79,10.11-.4,4.95.67,5.08,2.46-.58,4.18-2.11a38,38,0,0,0,5.32-6.1,31.92,31.92,0,0,0,4-7ZM89.7,92q.93-5.85,2.26-11.5a59.16,59.16,0,0,1,4.11-11.36,26.45,26.45,0,0,1,9.15-10.32,52.17,52.17,0,0,1,6.39-3.94,23.33,23.33,0,0,1,7.73-2.4l0-.18A17.53,17.53,0,0,0,111.21,54a27,27,0,0,0-6.88,4.33,41.59,41.59,0,0,0-5,5.41q-2.13,2.75-4.08,5.47c-5.11,7.74-6.91,15.49-5.78,23.08l.25-.08Zm35.2-12.43a15.87,15.87,0,0,0,.21-5,8.59,8.59,0,0,0-.56-2.63,3.41,3.41,0,0,0-1-1,1.77,1.77,0,0,0-1.72-.15l0,.18c.69,0,1.11.14,1.23.42a6,6,0,0,0,.5.91,1.59,1.59,0,0,1,.25,1.05,4.5,4.5,0,0,0,0,1.1c-.08,2-.12,3-.19,5,0,1.7,0,3.34-.06,4.93a21.35,21.35,0,0,1-.81,4.89q-.7,2.51-1.28,4.9a30.79,30.79,0,0,0-.73,5,46.13,46.13,0,0,0-.11,4.86,7.16,7.16,0,0,0,1.8,4.49l.23,0a9.85,9.85,0,0,1-.45-4.57c.2-1.56.38-3.15.51-4.76s.26-3.18.41-4.73.28-3.18.41-4.9a38.28,38.28,0,0,1,.67-5c.33-1.57.65-3.18,1-4.82Z"/><path class="cls-4" d="M168.91,139.72A16.48,16.48,0,0,1,160,137c-3.29-2.09-5.93-6-8.08-11.84A50.56,50.56,0,0,1,149.12,111a126.88,126.88,0,0,1,.12-16.51,130.34,130.34,0,0,1,2.59-18.08c1-4.74,2.21-9.41,3.56-13.93-1.8.06-3.58.09-5.32.09h-1.4a27.39,27.39,0,0,1-8-1.21,32.21,32.21,0,0,1-6.57-2.8,19.47,19.47,0,0,1-4.78-3.76A8.3,8.3,0,0,1,127,50.11a4.4,4.4,0,0,1,2.31-4.62,6.16,6.16,0,0,1,2.75-.63h.35a8.58,8.58,0,0,1,3.42.91l1.49.75.15,1.67a1.49,1.49,0,0,0,.46.7,11.22,11.22,0,0,0,2.18,1.66,16.19,16.19,0,0,0,4.26,1.5,31.13,31.13,0,0,0,7.54.93,65.58,65.58,0,0,0,6.9-.37,139.47,139.47,0,0,1,9.61-21.06c3.92-6.88,7.76-12.2,11.41-15.8a32,32,0,0,1,13.92-7.93,35.13,35.13,0,0,1,9.55-1.41A28.28,28.28,0,0,1,209,7a17.67,17.67,0,0,1,11.34,7.09c2.67,3.84,2.77,8.88.29,15a47.14,47.14,0,0,1-4.29,8,40.76,40.76,0,0,1-7.79,8.67,57.79,57.79,0,0,1-12.17,7.82,98.38,98.38,0,0,1-17.28,6.33l-.15,0-1.7.3c-1.56,3.82-3,7.76-4.17,11.74-.9,3-1.71,6-2.41,9h.68a18.29,18.29,0,0,1,11.08,3.79,48.74,48.74,0,0,1,6.16,5.72,86.27,86.27,0,0,0,12.55-3.37l.37-.13.39,0,.63,0a4.89,4.89,0,0,1,3.23,1A3.57,3.57,0,0,1,207,90.48a3.78,3.78,0,0,1-1,2.82,13,13,0,0,1-3.34,2.33,32.17,32.17,0,0,1-9.16,3.09A20.13,20.13,0,0,1,194,102a37.64,37.64,0,0,1-.47,8.63,53.64,53.64,0,0,1-2.45,9.3,50.31,50.31,0,0,1-4.18,8.92,24.67,24.67,0,0,1-6.83,7.07,19.72,19.72,0,0,1-9.68,3.76A14.41,14.41,0,0,1,168.91,139.72Zm-1-41.6a124.27,124.27,0,0,0-.47,16.89c.28,5.86,1,10.34,2.11,13.32.61,1.63,1.26,2.38,1.61,2.38l.19,0c.32-.06,2-.65,5.87-6.52v-.35l.46-.73A29.92,29.92,0,0,0,182.47,110,28.63,28.63,0,0,0,182,99.89l-1.24-.07c-1.1-.07-2.23-.16-3.41-.28-2.35-.24-4.68-.54-6.9-.91C169.53,98.49,168.7,98.32,167.92,98.12Zm5.44-6.92,1.23.31c.49.11,1,.2,1.55.27a5.2,5.2,0,0,0-2.07-.67Zm36.32-74.65a8.73,8.73,0,0,0-3.92,1.24,25.33,25.33,0,0,0-5.93,4.73,83.17,83.17,0,0,0-6.77,8.08,110.43,110.43,0,0,0-6.89,10.56q-1.8,3.09-3.45,6.41c1.11-.43,2.25-.92,3.41-1.46,2.62-1.21,5.21-2.56,7.7-4a66,66,0,0,0,6.84-4.53,26.67,26.67,0,0,0,4.27-4l.59-.89a33,33,0,0,0,5.59-9.23c1-3,1-4.68.73-5.52a1.63,1.63,0,0,0-1.43-1.33A3.5,3.5,0,0,0,209.68,16.55Z"/><path class="cls-5" d="M175.09,57.6a130.35,130.35,0,0,0-4.91,13.55Q168.13,78,166.8,84.53a24.69,24.69,0,0,1,4.5-.51,15.24,15.24,0,0,1,9.26,3.15,46.31,46.31,0,0,1,6.84,6.6A87.77,87.77,0,0,0,202.08,90a2.45,2.45,0,0,1,1.72.31c.32.26.3.6-.05,1a11.33,11.33,0,0,1-2.56,1.7,28.93,28.93,0,0,1-11.88,3.18,13.61,13.61,0,0,1,1.68,6,34.28,34.28,0,0,1-.44,7.93,49.46,49.46,0,0,1-2.32,8.76,47,47,0,0,1-3.92,8.39,21.5,21.5,0,0,1-6,6.18,16.7,16.7,0,0,1-8.22,3.22,13.14,13.14,0,0,1-8.44-2.22c-2.76-1.75-5-5.25-6.87-10.33a47.35,47.35,0,0,1-2.66-13.33,122.88,122.88,0,0,1,.12-16.12A126.64,126.64,0,0,1,154.76,77a177.53,177.53,0,0,1,4.77-17.76c-3.86.23-7.49.32-10.83.28a24.72,24.72,0,0,1-7.11-1.07,29.57,29.57,0,0,1-6-2.53,16.75,16.75,0,0,1-4.06-3.17,5.73,5.73,0,0,1-1.64-2.94c-.08-.83.14-1.38.66-1.64a3.17,3.17,0,0,1,1.61-.32,5.69,5.69,0,0,1,2.23.6A4.21,4.21,0,0,0,135.75,51a15.17,15.17,0,0,0,2.74,2.11A18.93,18.93,0,0,0,143.61,55,33.77,33.77,0,0,0,152,56a66.73,66.73,0,0,0,9-.62,137.26,137.26,0,0,1,10-22.32c3.78-6.65,7.46-11.75,10.9-15.16a29.08,29.08,0,0,1,12.64-7.17,28.73,28.73,0,0,1,13.83-.78,14.74,14.74,0,0,1,9.49,5.87c2.09,3,2,7,0,12.13a44.8,44.8,0,0,1-4,7.55,38.49,38.49,0,0,1-7.23,8A55.75,55.75,0,0,1,195,50.91,96.45,96.45,0,0,1,178.26,57Zm-12.37,10a144.84,144.84,0,0,1,4.87-13.66,141.27,141.27,0,0,1,6.26-13.42c2.36-4.33,5.08-8.68,7.72-12.94a48.83,48.83,0,0,1,10.67-11.95H192A34.77,34.77,0,0,0,185.29,21q-2.88,3-5.41,6.09a61.13,61.13,0,0,0-4.58,6.33q-2.06,3.27-3.92,6.57a84.69,84.69,0,0,0-6.06,13.64Q163,60.5,161.16,67.46t-3,14c-.8,4.69-1.58,9.42-2.07,14a79.88,79.88,0,0,0-.13,13.93,57.48,57.48,0,0,0,2.68,13.72h.23a81.9,81.9,0,0,1-1.36-13.73c-.07-4.63.1-9.33.3-13.85a102.93,102.93,0,0,1,4.93-27.76Zm17.5,57.14a33.18,33.18,0,0,0,5.24-14.37A29.51,29.51,0,0,0,184.18,97c-1.13,0-2.23-.06-3.29-.12s-2.15-.16-3.28-.28c-2.28-.22-4.52-.52-6.72-.88A18.65,18.65,0,0,1,165.34,94a132,132,0,0,0-.88,21.17q.43,9.36,2.29,14.24c1.23,3.26,2.93,4.66,5.17,4.24s4.94-3.29,8.3-8.57Zm-8.1-36.37c-2.32.3-3.71.86-4.18,1.66s-.21,1.6.8,2.41a13.3,13.3,0,0,0,5.19,2,29.57,29.57,0,0,0,9,.34,16,16,0,0,0-4.66-5.16,8.65,8.65,0,0,0-6.21-1.46Zm35.75-53.75A35.71,35.71,0,0,0,214,24.46c1-3,1.32-5.48.77-7.35a4.62,4.62,0,0,0-3.68-3.42c-1.91-.41-4.16.07-6.72,1.46a28.06,28.06,0,0,0-6.66,5.29,86.66,86.66,0,0,0-7,8.37,113.79,113.79,0,0,0-7.09,10.84,123.43,123.43,0,0,0-6.39,12.7l2.41-.55a54.92,54.92,0,0,0,7.81-3q4.07-1.89,7.94-4.14A69.26,69.26,0,0,0,202.49,40a28.39,28.39,0,0,0,5.37-5.2Z"/><path class="cls-6" d="M240.16,117.31a19.34,19.34,0,0,1-5.19-.71c-5.3-1.5-6.51-5.16-6.76-7.21a23.33,23.33,0,0,1,1.23-9.73l.28-.88a59.26,59.26,0,0,1-5.91,4.94A25.34,25.34,0,0,1,215,108.1a12.67,12.67,0,0,1-3.07.39,10.9,10.9,0,0,1-5.94-1.75c-2.68-1.7-4.62-4.82-5.93-9.54a33.49,33.49,0,0,1,.47-19.79A49.36,49.36,0,0,1,210.43,60a50.75,50.75,0,0,1,15.19-11.9,31.28,31.28,0,0,1,14-3.79c.65,0,1.31,0,1.94.09A32.37,32.37,0,0,1,252,46.92a24.3,24.3,0,0,1,6.74,4.36,18,18,0,0,1,3.8,5,10.53,10.53,0,0,1,1.33,5.32,6.79,6.79,0,0,1-4.62,5.5,5.17,5.17,0,0,1-1.55.24,5.53,5.53,0,0,1-2.88-.84,7.2,7.2,0,0,1-2.8-4.26c-.09-.28-.34-1.13-1.93-1.53a11.21,11.21,0,0,0-2.61-.29,17.68,17.68,0,0,0-3.41.36,30.74,30.74,0,0,0-7.68,2.68A25.27,25.27,0,0,0,230,67.89a41.31,41.31,0,0,0-6.34,8,69.81,69.81,0,0,0-5.23,10,44.94,44.94,0,0,0-2.77,8.77,8.15,8.15,0,0,0-.19,1.91,3.8,3.8,0,0,0,.83-.34,22,22,0,0,0,4.76-3.75,50.92,50.92,0,0,0,5.36-6.4c2.14-3,3.8-5.46,5.22-7.82a34.28,34.28,0,0,1,6.81-8.66A16.26,16.26,0,0,1,245.28,66a12.36,12.36,0,0,1,2.64-.3,9.83,9.83,0,0,1,3.73.71,14.43,14.43,0,0,1,4,2.32A9.92,9.92,0,0,1,259,76.67a28,28,0,0,1-1.67,8.67c-1,2.79-2.21,5.84-3.68,9.06-1.38,3-2.82,6.06-4.29,9-.13.25-.23.48-.33.69l.39-.15a29,29,0,0,0,6-3.42,32.25,32.25,0,0,0,2.75-2.2l-.56-.39,1.85-2.55c2-2.63,4.15-4.19,6.41-4.64a5,5,0,0,1,1-.1,4,4,0,0,1,3.46,1.83c.53.82,1.23,2.62,0,5.38-1.14,2.48-3.29,5.17-6.78,8.45a46.28,46.28,0,0,1-8.69,6.47,37.09,37.09,0,0,1-9.63,3.91A21.15,21.15,0,0,1,240.16,117.31Z"/><path class="cls-7" d="M261.79,97.22c1.56-2,3.11-3.21,4.62-3.52s2,1,1.11,2.92c-1.15,2.51-3.58,5.14-6.1,7.52a43.34,43.34,0,0,1-8.13,6,33.48,33.48,0,0,1-8.85,3.59,16.81,16.81,0,0,1-8.66-.07c-2.77-.78-4.31-2.33-4.59-4.68a20.33,20.33,0,0,1,1.11-8.47c1-3.27,2.37-6.84,4-10.67s3.15-7.55,4.49-11.19a32.76,32.76,0,0,1-4.31,7.67,75.19,75.19,0,0,1-6.73,8.11,57.07,57.07,0,0,1-7.72,6.82,23,23,0,0,1-7.74,3.89,8.21,8.21,0,0,1-6.68-1q-3-1.92-4.64-7.82a30.38,30.38,0,0,1,.43-18A46.22,46.22,0,0,1,212.68,62,47.73,47.73,0,0,1,227,50.77c5.32-2.69,10.15-3.78,14.32-3.39a30,30,0,0,1,9.49,2.26,21.54,21.54,0,0,1,5.92,3.81,14.93,14.93,0,0,1,3.18,4.17,7.88,7.88,0,0,1,1,3.75,3.43,3.43,0,0,1-.83,1.72,3.38,3.38,0,0,1-1.68,1.15,2.31,2.31,0,0,1-2-.29,4.41,4.41,0,0,1-1.5-2.56,5.28,5.28,0,0,0-4.08-3.58,16.92,16.92,0,0,0-7.33,0,34,34,0,0,0-8.42,2.93,28.9,28.9,0,0,0-7.17,4.94,44.84,44.84,0,0,0-6.8,8.58,72.52,72.52,0,0,0-5.46,10.47,48.48,48.48,0,0,0-2.95,9.36c-.53,2.79-.17,4.46.85,5.08s2.47.62,4.18-.31a24.47,24.47,0,0,0,5.43-4.26,53.47,53.47,0,0,0,5.69-6.77c1.87-2.61,3.71-5.29,5.35-8a31.78,31.78,0,0,1,6.16-7.9,13.24,13.24,0,0,1,5.54-3,7.78,7.78,0,0,1,4.61.26A11.65,11.65,0,0,1,253.71,71,6.9,6.9,0,0,1,256,76.63a24.42,24.42,0,0,1-1.51,7.72c-1,2.78-2.16,5.71-3.57,8.8s-2.83,6.08-4.25,8.93-1.62,4.56-.63,5.09,2.47.38,4.49-.42a31.88,31.88,0,0,0,6.59-3.77,26.43,26.43,0,0,0,5.58-5.15ZM210.4,80.58q2.37-5.19,5.07-10a50.93,50.93,0,0,1,6.78-9.24A22.12,22.12,0,0,1,233.59,55a46.25,46.25,0,0,1,7.06-1.32,22.54,22.54,0,0,1,8,.66l0-.18a17.59,17.59,0,0,0-8.13-1.51,24.34,24.34,0,0,0-7.64,1.5,35,35,0,0,0-6.12,3.25c-1.81,1.19-3.57,2.41-5.27,3.64C214.65,66.42,211,73.1,210.13,80.74l.26,0Zm36.66,1.6a14.91,14.91,0,0,0,1.45-4.63,8.92,8.92,0,0,0,.13-2.72,4.38,4.38,0,0,0-.72-1.35,2,2,0,0,0-1.6-.8l0,.18c.67.27,1,.56,1.07.87a6.51,6.51,0,0,0,.24,1.06,1.56,1.56,0,0,1,0,1.09,5.52,5.52,0,0,0-.28,1c-.57,1.86-.86,2.78-1.43,4.64-.41,1.62-.84,3.18-1.3,4.67a19.7,19.7,0,0,1-2,4.34q-1.31,2.1-2.46,4.16a27.69,27.69,0,0,0-1.95,4.46,44.13,44.13,0,0,0-1.33,4.58,7.79,7.79,0,0,0,.58,5l.23,0a9.82,9.82,0,0,1,.72-4.52q.89-2.1,1.68-4.32c.53-1.48,1.06-2.92,1.59-4.34s1.07-2.92,1.62-4.51a34.81,34.81,0,0,1,1.9-4.45q1.06-2.07,2.14-4.21Z"/><path class="cls-8" d="M303.6,136.46a29.42,29.42,0,0,1-18.84-7,19.55,19.55,0,0,1-6.09-9.74c-1.07-4.1-.19-8.21,2.61-12.22A117.7,117.7,0,0,1,288.61,98,43.72,43.72,0,0,0,294,90.47a11.3,11.3,0,0,0,1.53-5.84,5.87,5.87,0,0,0-1.33-3.09c-.61,1.08-1.24,2.14-1.9,3.16a33.79,33.79,0,0,1-4.39,5.55l-.11.11c-.86.78-1.9,1.8-3.08,3a61.16,61.16,0,0,1-4.52,4.21,46.73,46.73,0,0,1-5.7,4.06,30,30,0,0,1-7.13,3.09,11.41,11.41,0,0,1-3.07.54,4.25,4.25,0,0,1-3.33-1.37,4,4,0,0,1-.94-3.23c.29-2.35,2.09-4.48,5.69-6.7l.09,0a43.25,43.25,0,0,0,12.65-10.41A60.26,60.26,0,0,0,285,73.67c-3.37-2.79-6.72-5.61-9.35-8a16.5,16.5,0,0,1-5.74-11,7.64,7.64,0,0,1,5.41-8.42,17.45,17.45,0,0,1,5.69-.92,22.75,22.75,0,0,1,4.48.47,26,26,0,0,1,9.89,4.26c3.46,2.44,5.32,5.54,5.24,8.74a41.59,41.59,0,0,1-1,7.25,44.92,44.92,0,0,1-1.46,5.38,80.21,80.21,0,0,1,9.32,7.15,17.26,17.26,0,0,1,6.06,12.82,21.49,21.49,0,0,1-2.54,11,43.12,43.12,0,0,1-5.51,7.88c-2,2.24-3.95,4.26-5.84,6a10.38,10.38,0,0,0-2.84,3.74l0,.08,0,.09c-.72,1.62-.93,2.9-.6,3.69a4.2,4.2,0,0,0,2.4,1.75,11.17,11.17,0,0,0,3.83.59c3.38,0,7.81-1,13.55-3.1a51.68,51.68,0,0,0,7.14-3.2,8.21,8.21,0,0,1,4.57-1.43,8.11,8.11,0,0,1,2.17.3l1.16.32.27.45a4,4,0,0,1,2.11,3.86c-.13,1.89-1.61,3.39-3.79,5.07a32.22,32.22,0,0,1-8.57,4.25A76.41,76.41,0,0,1,308.59,136,28.14,28.14,0,0,1,303.6,136.46Zm-20.47-75.1a15.24,15.24,0,0,0,3.34,2.78l1.92,1.22c.21-.69.39-1.37.54-2a30.2,30.2,0,0,0,.75-4.32c0-.48.09-1.21-1.4-1.88a9.6,9.6,0,0,0-4-.91,8.38,8.38,0,0,0-1.11.07,3.19,3.19,0,0,0-2.58,1.45,4.54,4.54,0,0,0,.88,1.82Z"/><path class="cls-9" d="M329.19,122c.83.19,1.23.61,1.19,1.24s-.93,1.59-2.63,2.9A29.89,29.89,0,0,1,320,130a73.37,73.37,0,0,1-11.93,3.1,26.15,26.15,0,0,1-21.29-5.85,16.53,16.53,0,0,1-5.19-8.26c-.83-3.18-.14-6.44,2.17-9.75s4.69-6.38,7.14-9.23a45.07,45.07,0,0,0,5.74-8.09,14.1,14.1,0,0,0,1.89-7.4c-.12-2.38-1.59-4.89-4.45-7.45l-.76-.28a62,62,0,0,1-3.54,6.33,31.2,31.2,0,0,1-4,5.06q-1.35,1.22-3.24,3.19a52.69,52.69,0,0,1-4.29,4,40.32,40.32,0,0,1-5.32,3.79,26.66,26.66,0,0,1-6.42,2.79c-2.5.73-3.67.48-3.51-.83s1.57-2.83,4.29-4.51a46.45,46.45,0,0,0,13.51-11.14,60.37,60.37,0,0,0,7.93-12.56c-4.48-3.68-8.19-6.79-11.06-9.41a13.55,13.55,0,0,1-4.77-9,4.64,4.64,0,0,1,3.4-5.32,16.18,16.18,0,0,1,8.59-.35,23,23,0,0,1,8.76,3.77c2.63,1.86,4,4,4,6.22a39.82,39.82,0,0,1-.9,6.73,43.78,43.78,0,0,1-2.16,7.21,76.83,76.83,0,0,1,11,8.15,14.36,14.36,0,0,1,5.06,10.65A18.54,18.54,0,0,1,308.4,101a40.08,40.08,0,0,1-5.13,7.33q-2.88,3.24-5.63,5.81A13.39,13.39,0,0,0,294,119c-2.1,4.72-.91,7.83,3.49,9.47s10.77.66,19.46-2.5a47.67,47.67,0,0,0,7.76-3.52,5.06,5.06,0,0,1,4.28-.74ZM280.86,63.32a18.1,18.1,0,0,0,4,3.35l5.08,3.23A38.63,38.63,0,0,0,291.86,64a33.09,33.09,0,0,0,.81-4.78c.16-2.17-.92-3.83-3.16-4.84a12.25,12.25,0,0,0-6.71-1.07,6.18,6.18,0,0,0-4.83,3c-1,1.68,0,4.07,2.85,7.21Zm9.84,49.81a85.92,85.92,0,0,0,6.19-8.92A52.32,52.32,0,0,1,300,99.58,39,39,0,0,0,303.08,95a13.13,13.13,0,0,0,1.35-5.53c.12-2.1-.8-4.27-2.8-6.46l-.24-.1a8.91,8.91,0,0,1,1.45,5.91,27.8,27.8,0,0,1-1.37,5.14,29.85,29.85,0,0,1-5.68,9.47q-1.86,2.11-3.69,4.23c-1.22,1.42-2.35,3-3.41,4.36a19.92,19.92,0,0,0-2.71,4.83,13.66,13.66,0,0,0-.82,2.8,3.56,3.56,0,0,0,1.37,3.07l0-.17a2.76,2.76,0,0,1-.7-2.72,17.9,17.9,0,0,1,1-2.64,20.74,20.74,0,0,1,1.57-2.23c.51-.69,1-1.43,1.58-2.23Z"/><path class="cls-10" d="M334.16,148.66a23.29,23.29,0,0,1-5.32-.65,22.34,22.34,0,0,1-9.72-4.9,16.47,16.47,0,0,1-5.46-9.42c-.77-3.89.35-8.09,3.33-12.49a6.68,6.68,0,0,1,.85-1.31c.56-.69,1-1.24,1.28-1.67l.1-.15.13-.14c1.61-1.79,3.24-3.54,4.83-5.25,1.77-1.9,3.44-3.69,5-5.44,1.85-2.09,3.75-4.45,5.59-6.73.61-.76,1.23-1.53,1.85-2.28,2.68-3.3,3.58-5.59,3.87-6.93.89-4.12,2.53-6.84,4.87-8.07a7.4,7.4,0,0,1,3.47-.89,7.23,7.23,0,0,1,2.2.35,12.72,12.72,0,0,1-.94-2,8.87,8.87,0,0,1,.12-7.39,7.09,7.09,0,0,1,5.88-4c.24,0,.48,0,.73,0a10.6,10.6,0,0,1,6.36,2.4,13.44,13.44,0,0,1,4.69,6.24,8.81,8.81,0,0,1-.3,7.43,7.1,7.1,0,0,1-5.91,3.83l-.57,0a9.23,9.23,0,0,1-3.79-.86c.13.21.25.43.36.65a21.38,21.38,0,0,1,2.41,7.67c.3,2.79-.85,5.81-3.44,9a90,90,0,0,1-7.57,8.06c-2.77,2.65-5.66,5.35-8.85,8.25A61.94,61.94,0,0,0,333,129.6a25.26,25.26,0,0,0-3.59,5.74,4.62,4.62,0,0,0-.48,2.71c.16.58.37.69.51.76a7.17,7.17,0,0,0,2.62.61h.65a23.43,23.43,0,0,0,10.31-2.1q3.42-1.64,6.59-3l-.18-.37,3-1.19a8.28,8.28,0,0,1,2.93-.68,3.44,3.44,0,0,1,3.56,3c.24,2.11-1.34,3.72-2.91,5a35.52,35.52,0,0,1-6.44,3.91,61.67,61.67,0,0,1-10.17,3.86A18.65,18.65,0,0,1,334.16,148.66Z"/><path class="cls-11" d="M353.57,135.58c1.55-.6,2.37-.63,2.43-.11s-.56,1.3-1.83,2.35a32.68,32.68,0,0,1-5.89,3.55A58.64,58.64,0,0,1,338.6,145a17.38,17.38,0,0,1-9.07.06,19.28,19.28,0,0,1-8.44-4.24,13.42,13.42,0,0,1-4.48-7.74c-.62-3.11.36-6.62,3-10.46a3,3,0,0,1,.56-.89c.59-.74,1.06-1.34,1.39-1.83,3.36-3.74,6.83-7.31,9.84-10.7,2.5-2.83,5-6,7.51-9.11s4-5.86,4.48-8.19c.7-3.21,1.88-5.28,3.34-6.05a4.3,4.3,0,0,1,4.39.13A10.79,10.79,0,0,1,355,90.4,18.16,18.16,0,0,1,357.07,97c.22,2-.73,4.25-2.77,6.75a91.17,91.17,0,0,1-7.32,7.8q-4.25,4-8.8,8.19a64,64,0,0,0-7.52,8,28.27,28.27,0,0,0-4,6.47,7.38,7.38,0,0,0-.58,4.61,4,4,0,0,0,2.05,2.65,10,10,0,0,0,3.84.93A27.09,27.09,0,0,0,344.33,140c3.57-1.71,6.72-3.08,9.4-4.15Zm-32.26.87a4.86,4.86,0,0,1,.19-3.63,22.69,22.69,0,0,1,1.8-3c.67-.94,1.33-1.87,2-2.76l2-2.75c3.43-4.36,5.17-6.52,8.69-10.81a53,53,0,0,1,4.55-5.26c1.63-1.64,3.34-3.34,4.84-5.06a35.44,35.44,0,0,0,3.92-5.89A15.59,15.59,0,0,0,350.68,94a6.32,6.32,0,0,0-.38-4.12l-.25-.14a6.34,6.34,0,0,1-.36,3.77,23.22,23.22,0,0,1-1.58,3.07c-.59.88-1.39,1.81-2,2.71s-1.29,1.81-2,2.73a63.52,63.52,0,0,1-8.95,10.79c-1.71,1.69-3.35,3.39-4.94,5.08s-3.23,3.47-4.64,5.27a36.84,36.84,0,0,0-3.66,6.11,25.89,25.89,0,0,0-1.37,3.3,5.87,5.87,0,0,0,.23,4l.21.11ZM365,78.94a10.54,10.54,0,0,0-3.68-4.87,7.28,7.28,0,0,0-5-1.77,4.06,4.06,0,0,0-3.46,2.38,6,6,0,0,0,0,5,10.65,10.65,0,0,0,3.65,4.75,7.35,7.35,0,0,0,4.91,1.79,4.06,4.06,0,0,0,3.48-2.27A5.91,5.91,0,0,0,365,78.94Z"/><path class="cls-12" d="M85.88,121.4a59.57,59.57,0,0,0-11.45-12.9A130.54,130.54,0,0,0,61,98.54a108.86,108.86,0,0,0-13.09-7.27c-3.75-1.75-7-3.41-9.33-4.81a22.7,22.7,0,0,1-7.28-7.6,27.41,27.41,0,0,1-4.07-12A23.81,23.81,0,0,1,30,53.7c2.28-4.48,6.67-8.26,13-11.23S55.16,37.9,59.56,37.9l.69,0c4.23.16,7.61,1.07,10,2.7a15.1,15.1,0,0,1,5.25,5.74l.4.81c1.13,2.28,2.11,4.24,2.7,5.73A5.64,5.64,0,0,0,84,56.78a7.24,7.24,0,0,0,1.12-.09,9.25,9.25,0,0,0,6-4.15,14,14,0,0,0,2.23-8.34,14.32,14.32,0,0,0-.93-4.73l1.9.49-4.8-6.69c-2.17-3-5.64-5.23-10.32-6.54a40.92,40.92,0,0,0-6.78-1.25c-.42-.05-.84-.08-1.26-.12l-.88-.07c-.86-.05-1.73-.07-2.62-.08h-.58c-.79,0-1.59,0-2.4.06h-.19a72.15,72.15,0,0,0-16.71,3A69.85,69.85,0,0,0,32,35a46.31,46.31,0,0,0-12,10.36,64.67,64.67,0,0,0-8.82,13.9A57.72,57.72,0,0,0,6.41,75.11,41,41,0,0,0,7,91a34.21,34.21,0,0,0,7,13.71,37.29,37.29,0,0,0,13.68,10,146.51,146.51,0,0,1,19.82,10.53,80.26,80.26,0,0,1,12.88,10.14A37.37,37.37,0,0,1,67.57,145a27.46,27.46,0,0,1,2.81,9.57,17.17,17.17,0,0,1-1.61,8.95,29.19,29.19,0,0,1-5.88,8.44A30.23,30.23,0,0,1,54.4,178a17.53,17.53,0,0,1-6.74,1.79l-.93,0c-.39,0-.77,0-1.15,0a12.86,12.86,0,0,1-6.19-1.81,15.86,15.86,0,0,1-4.3-4.17,17.17,17.17,0,0,1-2.46-5.16,21.12,21.12,0,0,1-.9-4.82,31,31,0,0,0-.87-7.51c-.4-1.35-1.33-4.5-4.14-4.9l-.29,0h-.21c-3.32,0-4.09,3.84-4.34,5.1-.44,2.22-.31,5.53-.12,10.15.32,7.78,2.11,13.34,5.47,17a21.77,21.77,0,0,0,12.85,6.9,31.16,31.16,0,0,0,5,.39,39.93,39.93,0,0,0,10.47-1.51A57,57,0,0,0,71,182.56,54.3,54.3,0,0,0,84.14,171a39.49,39.49,0,0,0,8.16-16.37,39,39,0,0,0,.14-17.66A47.92,47.92,0,0,0,85.88,121.4Z"/><path class="cls-12" d="M98.54,118.65a10.68,10.68,0,0,1-2.1-.21c-3.1-.62-5.82-2.93-8.33-7a32.44,32.44,0,0,1-4.58-19A56,56,0,0,1,88.44,72.2,60.47,60.47,0,0,1,99.72,55.26c4.66-4.88,9.39-8.07,14-9.47a34,34,0,0,1,9.56-1.61c.36,0,.71,0,1.06,0A21.61,21.61,0,0,1,132,45.83a15.53,15.53,0,0,1,5.05,3.42,9.54,9.54,0,0,1,2.7,4.72,6.59,6.59,0,0,1-.53,3.62,7.15,7.15,0,0,1-2.25,3,5.4,5.4,0,0,1-3.31,1.14,5.86,5.86,0,0,1-1-.09,6.38,6.38,0,0,1-4.06-3.2c-.11-.17-.35-.54-1.27-.54a3.88,3.88,0,0,0-.57.05A15.13,15.13,0,0,0,121,60.31a36.76,36.76,0,0,0-6.72,5.54,31.6,31.6,0,0,0-5.08,6.78,49.5,49.5,0,0,0-4,10.13,79.5,79.5,0,0,0-2.44,11.59,49.34,49.34,0,0,0-.42,9.43,10,10,0,0,0,.18,1.38,6.06,6.06,0,0,0,.57-.57,27.35,27.35,0,0,0,3.66-5.5,62.93,62.93,0,0,0,3.51-8.19c1.28-3.65,2.23-6.65,3-9.46a39.62,39.62,0,0,1,4.22-10.67,18.66,18.66,0,0,1,5.41-5.88,11.06,11.06,0,0,1,6.06-2,13.52,13.52,0,0,1,4.56.71,8.82,8.82,0,0,1,5.47,6.54,28.36,28.36,0,0,1,.6,8.87c-.22,3-.63,6.37-1.21,10s-1.17,6.89-1.81,10.2a.36.36,0,0,1,0,.1,35.5,35.5,0,0,0,4.82-5.56c.81-1.12,1.52-2.19,2.11-3.2l-.7-.17,1.22-3.2c1.22-3.18,2.76-5.33,4.72-6.57a4.59,4.59,0,0,1,2.48-.77,3.78,3.78,0,0,1,2.92,1.35c.67.79,1.37,2.25,1,4.79-.58,3.55-2.58,7.46-4.26,10.46a56,56,0,0,1-6.58,9.37,44.25,44.25,0,0,1-8.08,7.28,21,21,0,0,1-9.63,3.73,11.07,11.07,0,0,1-1.38.08,7.34,7.34,0,0,1-7.28-4.63,23.41,23.41,0,0,1-1.3-9.74v0A70.75,70.75,0,0,1,112.4,109a30,30,0,0,1-7.07,7.37A11.75,11.75,0,0,1,98.54,118.65Z"/><path class="cls-12" d="M146.74,88.23c1-2.53,2.14-4.23,3.51-5.1s2.16.16,1.8,2.35c-.47,2.87-2.12,6.25-3.92,9.48a52.6,52.6,0,0,1-6.23,8.85,40.25,40.25,0,0,1-7.51,6.79,17.92,17.92,0,0,1-8.26,3.22c-2.83.31-4.68-.57-5.55-2.7a20.3,20.3,0,0,1-1.08-8.47q.24-5.27,1.13-11.68t1.44-12.35a36.9,36.9,0,0,1-2.15,8.93,92,92,0,0,1-4.35,10.28,68.57,68.57,0,0,1-5.61,9.41,27.17,27.17,0,0,1-6.36,6.65A8.27,8.27,0,0,1,97,115.5c-2.22-.45-4.33-2.33-6.36-5.66a29.34,29.34,0,0,1-4.14-17.32,52.75,52.75,0,0,1,4.64-19.08,57.52,57.52,0,0,1,10.72-16.11c4.37-4.58,8.68-7.45,12.74-8.66a29.28,29.28,0,0,1,9.59-1.47,18.93,18.93,0,0,1,6.6,1.37,12.31,12.31,0,0,1,4.08,2.75,6.94,6.94,0,0,1,1.93,3.17,3.86,3.86,0,0,1-.36,2,4.12,4.12,0,0,1-1.31,1.73,2.38,2.38,0,0,1-2,.48,3.73,3.73,0,0,1-2.07-1.86A4.52,4.52,0,0,0,126.35,55a18.06,18.06,0,0,0-7,2.82,39.56,39.56,0,0,0-7.26,6,34.75,34.75,0,0,0-5.56,7.43,52.86,52.86,0,0,0-4.29,10.74,81.05,81.05,0,0,0-2.53,12,51,51,0,0,0-.44,10c.2,2.85,1,4.3,2.08,4.5s2.5-.35,3.89-1.88a30.57,30.57,0,0,0,4.08-6.12,64.38,64.38,0,0,0,3.69-8.6c1.12-3.19,2.18-6.44,3-9.67A38.23,38.23,0,0,1,120,72.37a16,16,0,0,1,4.52-5,8.21,8.21,0,0,1,4.45-1.51,10.38,10.38,0,0,1,3.49.53,5.89,5.89,0,0,1,3.6,4.45,25.21,25.21,0,0,1,.51,7.92c-.21,3-.61,6.25-1.17,9.72s-1.17,6.86-1.79,10.11-.4,4.95.67,5.08,2.46-.58,4.18-2.11a38,38,0,0,0,5.32-6.1,31.92,31.92,0,0,0,4-7ZM93.7,92q.93-5.85,2.26-11.5a59.16,59.16,0,0,1,4.11-11.36,26.45,26.45,0,0,1,9.15-10.32,52.17,52.17,0,0,1,6.39-3.94,23.33,23.33,0,0,1,7.73-2.4l0-.18A17.53,17.53,0,0,0,115.21,54a27,27,0,0,0-6.88,4.33,41.59,41.59,0,0,0-5,5.41q-2.13,2.75-4.08,5.47c-5.11,7.74-6.91,15.49-5.78,23.08l.25-.08Zm35.2-12.43a15.87,15.87,0,0,0,.21-5,8.59,8.59,0,0,0-.56-2.63,3.41,3.41,0,0,0-1-1,1.77,1.77,0,0,0-1.72-.15l0,.18c.69,0,1.11.14,1.23.42a6,6,0,0,0,.5.91,1.59,1.59,0,0,1,.25,1.05,4.5,4.5,0,0,0,0,1.1c-.08,2-.12,3-.19,5,0,1.7,0,3.34-.06,4.93a21.35,21.35,0,0,1-.81,4.89q-.7,2.51-1.28,4.9a30.79,30.79,0,0,0-.73,5,46.13,46.13,0,0,0-.11,4.86,7.16,7.16,0,0,0,1.8,4.49l.23,0a9.85,9.85,0,0,1-.45-4.57c.2-1.56.38-3.15.51-4.76s.26-3.18.41-4.73.28-3.18.41-4.9a38.28,38.28,0,0,1,.67-5c.33-1.57.65-3.18,1-4.82Z"/><path class="cls-12" d="M172.91,139.72A16.48,16.48,0,0,1,164,137c-3.29-2.09-5.93-6-8.08-11.84A50.56,50.56,0,0,1,153.12,111a126.88,126.88,0,0,1,.12-16.51,130.34,130.34,0,0,1,2.59-18.08c1-4.74,2.21-9.41,3.56-13.93-1.8.06-3.58.09-5.32.09h-1.4a27.39,27.39,0,0,1-8-1.21,32.21,32.21,0,0,1-6.57-2.8,19.47,19.47,0,0,1-4.78-3.76A8.3,8.3,0,0,1,131,50.11a4.4,4.4,0,0,1,2.31-4.62,6.16,6.16,0,0,1,2.75-.63h.35a8.58,8.58,0,0,1,3.42.91l1.49.75.15,1.67a1.49,1.49,0,0,0,.46.7,11.22,11.22,0,0,0,2.18,1.66,16.19,16.19,0,0,0,4.26,1.5,31.13,31.13,0,0,0,7.54.93,65.58,65.58,0,0,0,6.9-.37,139.47,139.47,0,0,1,9.61-21.06c3.92-6.88,7.76-12.2,11.41-15.8a32,32,0,0,1,13.92-7.93,35.13,35.13,0,0,1,9.55-1.41A28.28,28.28,0,0,1,213,7a17.67,17.67,0,0,1,11.34,7.09c2.67,3.84,2.77,8.88.29,15a47.14,47.14,0,0,1-4.29,8,40.76,40.76,0,0,1-7.79,8.67,57.79,57.79,0,0,1-12.17,7.82,98.38,98.38,0,0,1-17.28,6.33l-.15,0-1.7.3c-1.56,3.82-3,7.76-4.17,11.74-.9,3-1.71,6-2.41,9h.68a18.29,18.29,0,0,1,11.08,3.79,48.74,48.74,0,0,1,6.16,5.72,86.27,86.27,0,0,0,12.55-3.37l.37-.13.39,0,.63,0a4.89,4.89,0,0,1,3.23,1A3.57,3.57,0,0,1,211,90.48a3.78,3.78,0,0,1-1,2.82,13,13,0,0,1-3.34,2.33,32.17,32.17,0,0,1-9.16,3.09A20.13,20.13,0,0,1,198,102a37.64,37.64,0,0,1-.47,8.63,53.64,53.64,0,0,1-2.45,9.3,50.31,50.31,0,0,1-4.18,8.92,24.67,24.67,0,0,1-6.83,7.07,19.72,19.72,0,0,1-9.68,3.76A14.41,14.41,0,0,1,172.91,139.72Zm-1-41.6a124.27,124.27,0,0,0-.47,16.89c.28,5.86,1,10.34,2.11,13.32.61,1.63,1.26,2.38,1.61,2.38l.19,0c.32-.06,2-.65,5.87-6.52v-.35l.46-.73A29.92,29.92,0,0,0,186.47,110,28.63,28.63,0,0,0,186,99.89l-1.24-.07c-1.1-.07-2.23-.16-3.41-.28-2.35-.24-4.68-.54-6.9-.91C173.53,98.49,172.7,98.32,171.92,98.12Zm5.44-6.92,1.23.31c.49.11,1,.2,1.55.27a5.2,5.2,0,0,0-2.07-.67Zm36.32-74.65a8.73,8.73,0,0,0-3.92,1.24,25.33,25.33,0,0,0-5.93,4.73,83.17,83.17,0,0,0-6.77,8.08,110.43,110.43,0,0,0-6.89,10.56q-1.8,3.09-3.45,6.41c1.11-.43,2.25-.92,3.41-1.46,2.62-1.21,5.21-2.56,7.7-4a66,66,0,0,0,6.84-4.53,26.67,26.67,0,0,0,4.27-4l.59-.89a33,33,0,0,0,5.59-9.23c1-3,1-4.68.73-5.52a1.63,1.63,0,0,0-1.43-1.33A3.5,3.5,0,0,0,213.68,16.55Z"/><path class="cls-12" d="M179.09,57.6a130.35,130.35,0,0,0-4.91,13.55Q172.13,78,170.8,84.53a24.69,24.69,0,0,1,4.5-.51,15.24,15.24,0,0,1,9.26,3.15,46.31,46.31,0,0,1,6.84,6.6A87.77,87.77,0,0,0,206.08,90a2.45,2.45,0,0,1,1.72.31c.32.26.3.6-.05,1a11.33,11.33,0,0,1-2.56,1.7,28.93,28.93,0,0,1-11.88,3.18,13.61,13.61,0,0,1,1.68,6,34.28,34.28,0,0,1-.44,7.93,49.46,49.46,0,0,1-2.32,8.76,47,47,0,0,1-3.92,8.39,21.5,21.5,0,0,1-6,6.18,16.7,16.7,0,0,1-8.22,3.22,13.14,13.14,0,0,1-8.44-2.22c-2.76-1.75-5-5.25-6.87-10.33a47.35,47.35,0,0,1-2.66-13.33,122.88,122.88,0,0,1,.12-16.12A126.64,126.64,0,0,1,158.76,77a177.53,177.53,0,0,1,4.77-17.76c-3.86.23-7.49.32-10.83.28a24.72,24.72,0,0,1-7.11-1.07,29.57,29.57,0,0,1-6-2.53,16.75,16.75,0,0,1-4.06-3.17,5.73,5.73,0,0,1-1.64-2.94c-.08-.83.14-1.38.66-1.64a3.17,3.17,0,0,1,1.61-.32,5.69,5.69,0,0,1,2.23.6A4.21,4.21,0,0,0,139.75,51a15.17,15.17,0,0,0,2.74,2.11A18.93,18.93,0,0,0,147.61,55,33.77,33.77,0,0,0,156,56a66.73,66.73,0,0,0,9-.62,137.26,137.26,0,0,1,10-22.32c3.78-6.65,7.46-11.75,10.9-15.16a29.08,29.08,0,0,1,12.64-7.17,28.73,28.73,0,0,1,13.83-.78,14.74,14.74,0,0,1,9.49,5.87c2.09,3,2,7,0,12.13a44.8,44.8,0,0,1-4,7.55,38.49,38.49,0,0,1-7.23,8A55.75,55.75,0,0,1,199,50.91,96.45,96.45,0,0,1,182.26,57Zm-12.37,10a144.84,144.84,0,0,1,4.87-13.66,141.27,141.27,0,0,1,6.26-13.42c2.36-4.33,5.08-8.68,7.72-12.94a48.83,48.83,0,0,1,10.67-11.95H196A34.77,34.77,0,0,0,189.29,21q-2.88,3-5.41,6.09a61.13,61.13,0,0,0-4.58,6.33q-2.06,3.27-3.92,6.57a84.69,84.69,0,0,0-6.06,13.64Q167,60.5,165.16,67.46t-3,14c-.8,4.69-1.58,9.42-2.07,14a79.88,79.88,0,0,0-.13,13.93,57.48,57.48,0,0,0,2.68,13.72h.23a81.9,81.9,0,0,1-1.36-13.73c-.07-4.63.1-9.33.3-13.85a102.93,102.93,0,0,1,4.93-27.76Zm17.5,57.14a33.18,33.18,0,0,0,5.24-14.37A29.51,29.51,0,0,0,188.18,97c-1.13,0-2.23-.06-3.29-.12s-2.15-.16-3.28-.28c-2.28-.22-4.52-.52-6.72-.88A18.65,18.65,0,0,1,169.34,94a132,132,0,0,0-.88,21.17q.43,9.36,2.29,14.24c1.23,3.26,2.93,4.66,5.17,4.24s4.94-3.29,8.3-8.57Zm-8.1-36.37c-2.32.3-3.71.86-4.18,1.66s-.21,1.6.8,2.41a13.3,13.3,0,0,0,5.19,2,29.57,29.57,0,0,0,9,.34,16,16,0,0,0-4.66-5.16,8.65,8.65,0,0,0-6.21-1.46Zm35.75-53.75A35.71,35.71,0,0,0,218,24.46c1-3,1.32-5.48.77-7.35a4.62,4.62,0,0,0-3.68-3.42c-1.91-.41-4.16.07-6.72,1.46a28.06,28.06,0,0,0-6.66,5.29,86.66,86.66,0,0,0-7,8.37,113.79,113.79,0,0,0-7.09,10.84,123.43,123.43,0,0,0-6.39,12.7l2.41-.55a54.92,54.92,0,0,0,7.81-3q4.07-1.89,7.94-4.14A69.26,69.26,0,0,0,206.49,40a28.39,28.39,0,0,0,5.37-5.2Z"/><path class="cls-12" d="M244.16,117.31a19.34,19.34,0,0,1-5.19-.71c-5.3-1.5-6.51-5.16-6.76-7.21a23.33,23.33,0,0,1,1.23-9.73l.28-.88a59.26,59.26,0,0,1-5.91,4.94A25.34,25.34,0,0,1,219,108.1a12.67,12.67,0,0,1-3.07.39,10.9,10.9,0,0,1-5.94-1.75c-2.68-1.7-4.62-4.82-5.93-9.54a33.49,33.49,0,0,1,.47-19.79A49.36,49.36,0,0,1,214.43,60a50.75,50.75,0,0,1,15.19-11.9,31.28,31.28,0,0,1,14-3.79c.65,0,1.31,0,1.94.09A32.37,32.37,0,0,1,256,46.92a24.3,24.3,0,0,1,6.74,4.36,18,18,0,0,1,3.8,5,10.53,10.53,0,0,1,1.33,5.32,6.79,6.79,0,0,1-4.62,5.5,5.17,5.17,0,0,1-1.55.24,5.53,5.53,0,0,1-2.88-.84,7.2,7.2,0,0,1-2.8-4.26c-.09-.28-.34-1.13-1.93-1.53a11.21,11.21,0,0,0-2.61-.29,17.68,17.68,0,0,0-3.41.36,30.74,30.74,0,0,0-7.68,2.68A25.27,25.27,0,0,0,234,67.89a41.31,41.31,0,0,0-6.34,8,69.81,69.81,0,0,0-5.23,10,44.94,44.94,0,0,0-2.77,8.77,8.15,8.15,0,0,0-.19,1.91,3.8,3.8,0,0,0,.83-.34,22,22,0,0,0,4.76-3.75,50.92,50.92,0,0,0,5.36-6.4c2.14-3,3.8-5.46,5.22-7.82a34.28,34.28,0,0,1,6.81-8.66A16.26,16.26,0,0,1,249.28,66a12.36,12.36,0,0,1,2.64-.3,9.83,9.83,0,0,1,3.73.71,14.43,14.43,0,0,1,4,2.32A9.92,9.92,0,0,1,263,76.67a28,28,0,0,1-1.67,8.67c-1,2.79-2.21,5.84-3.68,9.06-1.38,3-2.82,6.06-4.29,9-.13.25-.23.48-.33.69l.39-.15a29,29,0,0,0,6-3.42,32.25,32.25,0,0,0,2.75-2.2l-.56-.39,1.85-2.55c2-2.63,4.15-4.19,6.41-4.64a5,5,0,0,1,1-.1,4,4,0,0,1,3.46,1.83c.53.82,1.23,2.62,0,5.38-1.14,2.48-3.29,5.17-6.78,8.45a46.28,46.28,0,0,1-8.69,6.47,37.09,37.09,0,0,1-9.63,3.91A21.15,21.15,0,0,1,244.16,117.31Z"/><path class="cls-12" d="M265.79,97.22c1.56-2,3.11-3.21,4.62-3.52s2,1,1.11,2.92c-1.15,2.51-3.58,5.14-6.1,7.52a43.34,43.34,0,0,1-8.13,6,33.48,33.48,0,0,1-8.85,3.59,16.81,16.81,0,0,1-8.66-.07c-2.77-.78-4.31-2.33-4.59-4.68a20.33,20.33,0,0,1,1.11-8.47c1-3.27,2.37-6.84,4-10.67s3.15-7.55,4.49-11.19a32.76,32.76,0,0,1-4.31,7.67,75.19,75.19,0,0,1-6.73,8.11,57.07,57.07,0,0,1-7.72,6.82,23,23,0,0,1-7.74,3.89,8.21,8.21,0,0,1-6.68-1q-3-1.92-4.64-7.82a30.38,30.38,0,0,1,.43-18A46.22,46.22,0,0,1,216.68,62,47.73,47.73,0,0,1,231,50.77c5.32-2.69,10.15-3.78,14.32-3.39a30,30,0,0,1,9.49,2.26,21.54,21.54,0,0,1,5.92,3.81,14.93,14.93,0,0,1,3.18,4.17,7.88,7.88,0,0,1,1,3.75,3.43,3.43,0,0,1-.83,1.72,3.38,3.38,0,0,1-1.68,1.15,2.31,2.31,0,0,1-2-.29,4.41,4.41,0,0,1-1.5-2.56,5.28,5.28,0,0,0-4.08-3.58,16.92,16.92,0,0,0-7.33,0,34,34,0,0,0-8.42,2.93,28.9,28.9,0,0,0-7.17,4.94,44.84,44.84,0,0,0-6.8,8.58,72.52,72.52,0,0,0-5.46,10.47,48.48,48.48,0,0,0-2.95,9.36c-.53,2.79-.17,4.46.85,5.08s2.47.62,4.18-.31a24.47,24.47,0,0,0,5.43-4.26,53.47,53.47,0,0,0,5.69-6.77c1.87-2.61,3.71-5.29,5.35-8a31.78,31.78,0,0,1,6.16-7.9,13.24,13.24,0,0,1,5.54-3,7.78,7.78,0,0,1,4.61.26A11.65,11.65,0,0,1,257.71,71,6.9,6.9,0,0,1,260,76.63a24.42,24.42,0,0,1-1.51,7.72c-1,2.78-2.16,5.71-3.57,8.8s-2.83,6.08-4.25,8.93-1.62,4.56-.63,5.09,2.47.38,4.49-.42a31.88,31.88,0,0,0,6.59-3.77,26.43,26.43,0,0,0,5.58-5.15ZM214.4,80.58q2.37-5.19,5.07-10a50.93,50.93,0,0,1,6.78-9.24A22.12,22.12,0,0,1,237.59,55a46.25,46.25,0,0,1,7.06-1.32,22.54,22.54,0,0,1,8,.66l0-.18a17.59,17.59,0,0,0-8.13-1.51,24.34,24.34,0,0,0-7.64,1.5,35,35,0,0,0-6.12,3.25c-1.81,1.19-3.57,2.41-5.27,3.64C218.65,66.42,215,73.1,214.13,80.74l.26,0Zm36.66,1.6a14.91,14.91,0,0,0,1.45-4.63,8.92,8.92,0,0,0,.13-2.72,4.38,4.38,0,0,0-.72-1.35,2,2,0,0,0-1.6-.8l0,.18c.67.27,1,.56,1.07.87a6.51,6.51,0,0,0,.24,1.06,1.56,1.56,0,0,1,0,1.09,5.52,5.52,0,0,0-.28,1c-.57,1.86-.86,2.78-1.43,4.64-.41,1.62-.84,3.18-1.3,4.67a19.7,19.7,0,0,1-2,4.34q-1.31,2.1-2.46,4.16a27.69,27.69,0,0,0-1.95,4.46,44.13,44.13,0,0,0-1.33,4.58,7.79,7.79,0,0,0,.58,5l.23,0a9.82,9.82,0,0,1,.72-4.52q.89-2.1,1.68-4.32c.53-1.48,1.06-2.92,1.59-4.34s1.07-2.92,1.62-4.51a34.81,34.81,0,0,1,1.9-4.45q1.06-2.07,2.14-4.21Z"/><path class="cls-12" d="M307.6,136.46a29.42,29.42,0,0,1-18.84-7,19.55,19.55,0,0,1-6.09-9.74c-1.07-4.1-.19-8.21,2.61-12.22A117.7,117.7,0,0,1,292.61,98,43.72,43.72,0,0,0,298,90.47a11.3,11.3,0,0,0,1.53-5.84,5.87,5.87,0,0,0-1.33-3.09c-.61,1.08-1.24,2.14-1.9,3.16a33.79,33.79,0,0,1-4.39,5.55l-.11.11c-.86.78-1.9,1.8-3.08,3a61.16,61.16,0,0,1-4.52,4.21,46.73,46.73,0,0,1-5.7,4.06,30,30,0,0,1-7.13,3.09,11.41,11.41,0,0,1-3.07.54,4.25,4.25,0,0,1-3.33-1.37,4,4,0,0,1-.94-3.23c.29-2.35,2.09-4.48,5.69-6.7l.09,0a43.25,43.25,0,0,0,12.65-10.41A60.26,60.26,0,0,0,289,73.67c-3.37-2.79-6.72-5.61-9.35-8a16.5,16.5,0,0,1-5.74-11,7.64,7.64,0,0,1,5.41-8.42,17.45,17.45,0,0,1,5.69-.92,22.75,22.75,0,0,1,4.48.47,26,26,0,0,1,9.89,4.26c3.46,2.44,5.32,5.54,5.24,8.74a41.59,41.59,0,0,1-1,7.25,44.92,44.92,0,0,1-1.46,5.38,80.21,80.21,0,0,1,9.32,7.15,17.26,17.26,0,0,1,6.06,12.82,21.49,21.49,0,0,1-2.54,11,43.12,43.12,0,0,1-5.51,7.88c-2,2.24-3.95,4.26-5.84,6a10.38,10.38,0,0,0-2.84,3.74l0,.08,0,.09c-.72,1.62-.93,2.9-.6,3.69a4.2,4.2,0,0,0,2.4,1.75,11.17,11.17,0,0,0,3.83.59c3.38,0,7.81-1,13.55-3.1a51.68,51.68,0,0,0,7.14-3.2,8.21,8.21,0,0,1,4.57-1.43,8.11,8.11,0,0,1,2.17.3l1.16.32.27.45a4,4,0,0,1,2.11,3.86c-.13,1.89-1.61,3.39-3.79,5.07a32.22,32.22,0,0,1-8.57,4.25A76.41,76.41,0,0,1,312.59,136,28.14,28.14,0,0,1,307.6,136.46Zm-20.47-75.1a15.24,15.24,0,0,0,3.34,2.78l1.92,1.22c.21-.69.39-1.37.54-2a30.2,30.2,0,0,0,.75-4.32c0-.48.09-1.21-1.4-1.88a9.6,9.6,0,0,0-4-.91,8.38,8.38,0,0,0-1.11.07,3.19,3.19,0,0,0-2.58,1.45,4.54,4.54,0,0,0,.88,1.82Z"/><path class="cls-12" d="M333.19,122c.83.19,1.23.61,1.19,1.24s-.93,1.59-2.63,2.9A29.89,29.89,0,0,1,324,130a73.37,73.37,0,0,1-11.93,3.1,26.15,26.15,0,0,1-21.29-5.85,16.53,16.53,0,0,1-5.19-8.26c-.83-3.18-.14-6.44,2.17-9.75s4.69-6.38,7.14-9.23a45.07,45.07,0,0,0,5.74-8.09,14.1,14.1,0,0,0,1.89-7.4c-.12-2.38-1.59-4.89-4.45-7.45l-.76-.28a62,62,0,0,1-3.54,6.33,31.2,31.2,0,0,1-4,5.06q-1.35,1.22-3.24,3.19a52.69,52.69,0,0,1-4.29,4,40.32,40.32,0,0,1-5.32,3.79,26.66,26.66,0,0,1-6.42,2.79c-2.5.73-3.67.48-3.51-.83s1.57-2.83,4.29-4.51a46.45,46.45,0,0,0,13.51-11.14,60.37,60.37,0,0,0,7.93-12.56c-4.48-3.68-8.19-6.79-11.06-9.41a13.55,13.55,0,0,1-4.77-9,4.64,4.64,0,0,1,3.4-5.32,16.18,16.18,0,0,1,8.59-.35,23,23,0,0,1,8.76,3.77c2.63,1.86,4,4,4,6.22a39.82,39.82,0,0,1-.9,6.73,43.78,43.78,0,0,1-2.16,7.21,76.83,76.83,0,0,1,11,8.15,14.36,14.36,0,0,1,5.06,10.65A18.54,18.54,0,0,1,312.4,101a40.08,40.08,0,0,1-5.13,7.33q-2.88,3.24-5.63,5.81A13.39,13.39,0,0,0,298,119c-2.1,4.72-.91,7.83,3.49,9.47s10.77.66,19.46-2.5a47.67,47.67,0,0,0,7.76-3.52,5.06,5.06,0,0,1,4.28-.74ZM284.86,63.32a18.1,18.1,0,0,0,4,3.35l5.08,3.23A38.63,38.63,0,0,0,295.86,64a33.09,33.09,0,0,0,.81-4.78c.16-2.17-.92-3.83-3.16-4.84a12.25,12.25,0,0,0-6.71-1.07,6.18,6.18,0,0,0-4.83,3c-1,1.68,0,4.07,2.85,7.21Zm9.84,49.81a85.92,85.92,0,0,0,6.19-8.92A52.32,52.32,0,0,1,304,99.58,39,39,0,0,0,307.08,95a13.13,13.13,0,0,0,1.35-5.53c.12-2.1-.8-4.27-2.8-6.46l-.24-.1a8.91,8.91,0,0,1,1.45,5.91,27.8,27.8,0,0,1-1.37,5.14,29.85,29.85,0,0,1-5.68,9.47q-1.86,2.11-3.69,4.23c-1.22,1.42-2.35,3-3.41,4.36a19.92,19.92,0,0,0-2.71,4.83,13.66,13.66,0,0,0-.82,2.8,3.56,3.56,0,0,0,1.37,3.07l0-.17a2.76,2.76,0,0,1-.7-2.72,17.9,17.9,0,0,1,1-2.64,20.74,20.74,0,0,1,1.57-2.23c.51-.69,1-1.43,1.58-2.23Z"/><path class="cls-12" d="M338.16,148.66a23.29,23.29,0,0,1-5.32-.65,22.34,22.34,0,0,1-9.72-4.9,16.47,16.47,0,0,1-5.46-9.42c-.77-3.89.35-8.09,3.33-12.49a6.68,6.68,0,0,1,.85-1.31c.56-.69,1-1.24,1.28-1.67l.1-.15.13-.14c1.61-1.79,3.24-3.54,4.83-5.25,1.77-1.9,3.44-3.69,5-5.44,1.85-2.09,3.75-4.45,5.59-6.73.61-.76,1.23-1.53,1.85-2.28,2.68-3.3,3.58-5.59,3.87-6.93.89-4.12,2.53-6.84,4.87-8.07a7.4,7.4,0,0,1,3.47-.89,7.23,7.23,0,0,1,2.2.35,12.72,12.72,0,0,1-.94-2,8.87,8.87,0,0,1,.12-7.39,7.09,7.09,0,0,1,5.88-4c.24,0,.48,0,.73,0a10.6,10.6,0,0,1,6.36,2.4,13.44,13.44,0,0,1,4.69,6.24,8.81,8.81,0,0,1-.3,7.43,7.1,7.1,0,0,1-5.91,3.83l-.57,0a9.23,9.23,0,0,1-3.79-.86c.13.21.25.43.36.65a21.38,21.38,0,0,1,2.41,7.67c.3,2.79-.85,5.81-3.44,9a90,90,0,0,1-7.57,8.06c-2.77,2.65-5.66,5.35-8.85,8.25A61.94,61.94,0,0,0,337,129.6a25.26,25.26,0,0,0-3.59,5.74,4.62,4.62,0,0,0-.48,2.71c.16.58.37.69.51.76a7.17,7.17,0,0,0,2.62.61h.65a23.43,23.43,0,0,0,10.31-2.1q3.42-1.64,6.59-3l-.18-.37,3-1.19a8.28,8.28,0,0,1,2.93-.68,3.44,3.44,0,0,1,3.56,3c.24,2.11-1.34,3.72-2.91,5a35.52,35.52,0,0,1-6.44,3.91,61.67,61.67,0,0,1-10.17,3.86A18.65,18.65,0,0,1,338.16,148.66Z"/><path class="cls-12" d="M357.57,135.58c1.55-.6,2.37-.63,2.43-.11s-.56,1.3-1.83,2.35a32.68,32.68,0,0,1-5.89,3.55A58.64,58.64,0,0,1,342.6,145a17.38,17.38,0,0,1-9.07.06,19.28,19.28,0,0,1-8.44-4.24,13.42,13.42,0,0,1-4.48-7.74c-.62-3.11.36-6.62,3-10.46a3,3,0,0,1,.56-.89c.59-.74,1.06-1.34,1.39-1.83,3.36-3.74,6.83-7.31,9.84-10.7,2.5-2.83,5-6,7.51-9.11s4-5.86,4.48-8.19c.7-3.21,1.88-5.28,3.34-6.05a4.3,4.3,0,0,1,4.39.13A10.79,10.79,0,0,1,359,90.4,18.16,18.16,0,0,1,361.07,97c.22,2-.73,4.25-2.77,6.75a91.17,91.17,0,0,1-7.32,7.8q-4.25,4-8.8,8.19a64,64,0,0,0-7.52,8,28.27,28.27,0,0,0-4,6.47,7.38,7.38,0,0,0-.58,4.61,4,4,0,0,0,2.05,2.65,10,10,0,0,0,3.84.93A27.09,27.09,0,0,0,348.33,140c3.57-1.71,6.72-3.08,9.4-4.15Zm-32.26.87a4.86,4.86,0,0,1,.19-3.63,22.69,22.69,0,0,1,1.8-3c.67-.94,1.33-1.87,2-2.76l2-2.75c3.43-4.36,5.17-6.52,8.69-10.81a53,53,0,0,1,4.55-5.26c1.63-1.64,3.34-3.34,4.84-5.06a35.44,35.44,0,0,0,3.92-5.89A15.59,15.59,0,0,0,354.68,94a6.32,6.32,0,0,0-.38-4.12l-.25-.14a6.34,6.34,0,0,1-.36,3.77,23.22,23.22,0,0,1-1.58,3.07c-.59.88-1.39,1.81-2,2.71s-1.29,1.81-2,2.73a63.52,63.52,0,0,1-8.95,10.79c-1.71,1.69-3.35,3.39-4.94,5.08s-3.23,3.47-4.64,5.27a36.84,36.84,0,0,0-3.66,6.11,25.89,25.89,0,0,0-1.37,3.3,5.87,5.87,0,0,0,.23,4l.21.11ZM369,78.94a10.54,10.54,0,0,0-3.68-4.87,7.28,7.28,0,0,0-5-1.77,4.06,4.06,0,0,0-3.46,2.38,6,6,0,0,0,0,5,10.65,10.65,0,0,0,3.65,4.75,7.35,7.35,0,0,0,4.91,1.79,4.06,4.06,0,0,0,3.48-2.27A5.91,5.91,0,0,0,369,78.94Z"/><path d="M46.77,39.75c7.47-3.48,13.73-5,18.6-4.83S74.1,36.21,77,38.13A17.76,17.76,0,0,1,83.23,45c1.33,2.66,2.5,5,3.21,6.77a2.67,2.67,0,0,0,3.16,1.93,6.33,6.33,0,0,0,4.09-2.91,11,11,0,0,0,1.69-6.58c0-2.71-1.32-5.86-3.92-9.39l.65.17c-1.74-2.43-4.63-4.26-8.69-5.4a42.71,42.71,0,0,0-13.75-1.35,69.64,69.64,0,0,0-16,2.84,67,67,0,0,0-15.11,6.45,43.37,43.37,0,0,0-11.19,9.7A61,61,0,0,0,19,60.51a54.41,54.41,0,0,0-4.57,15.05,37.52,37.52,0,0,0,.54,14.7,31,31,0,0,0,6.35,12.51A34.51,34.51,0,0,0,33.86,112a147.53,147.53,0,0,1,20.22,10.75,82.43,82.43,0,0,1,13.37,10.53,40.3,40.3,0,0,1,7.8,10.36,30.12,30.12,0,0,1,3.11,10.6,20,20,0,0,1-1.86,10.51c-.27.58-.58,1.13-.88,1.7a1.49,1.49,0,0,0-.14.12l-.09.11a3.21,3.21,0,0,0-.79,1.54A33,33,0,0,1,70,174a33.51,33.51,0,0,1-9.32,6.66,20.14,20.14,0,0,1-10.36,2.06,15.68,15.68,0,0,1-7.63-2.32,18.67,18.67,0,0,1-5.1-4.95,20,20,0,0,1-2.88-6.06,23.29,23.29,0,0,1-1-5.55,27.38,27.38,0,0,0-.75-6.73c-.52-1.77-1.08-2.7-1.68-2.78s-1.1.8-1.48,2.68-.23,5.17-.06,9.43c.27,6.56,1.66,11.81,4.68,15.11a18.66,18.66,0,0,0,11.12,6,33.08,33.08,0,0,0,14.17-1A54.16,54.16,0,0,0,74.36,180a51.22,51.22,0,0,0,12.46-11,36.83,36.83,0,0,0,7.69-31.45A44.68,44.68,0,0,0,88.37,123a56.49,56.49,0,0,0-10.88-12.25,127.68,127.68,0,0,0-13.11-9.73A108.24,108.24,0,0,0,51.65,94c-4.08-1.9-7.32-3.59-9.6-4.95a25.3,25.3,0,0,1-8.3-8.59,30.26,30.26,0,0,1-4.5-13.32,26.65,26.65,0,0,1,3.06-14.79C34.85,47.36,39.67,43.06,46.77,39.75Zm-18.1,18a.94.94,0,0,0,.06-.15c0,.06,0,.13-.05.19Zm.08-.2a1.55,1.55,0,0,0,0-.52l.12-.06C28.85,57.11,28.8,57.3,28.75,57.5Zm33.82,65.69c.16.15.31.31.47.48l-.57-.41ZM22.28,92.89l.23.28c0,.11,0,.22.06.33C22.47,93.3,22.38,93.09,22.28,92.89Z"/><path d="M374,78.94a10.54,10.54,0,0,0-3.68-4.87,7.28,7.28,0,0,0-5-1.77,4.06,4.06,0,0,0-3.46,2.38,6,6,0,0,0,0,5,10.65,10.65,0,0,0,3.65,4.75,7.35,7.35,0,0,0,4.91,1.79,4.06,4.06,0,0,0,3.48-2.27A5.91,5.91,0,0,0,374,78.94Z"/><path d="M339.66,127.76a64,64,0,0,1,7.52-8q4.54-4.14,8.8-8.19a91.17,91.17,0,0,0,7.32-7.8c2-2.5,3-4.76,2.77-6.75A18.16,18.16,0,0,0,364,90.4,10.79,10.79,0,0,0,360.14,86a4.3,4.3,0,0,0-4.39-.13c-1.46.77-2.64,2.84-3.34,6.05-.5,2.33-2,5.1-4.48,8.19s-5,6.28-7.51,9.11c-3,3.39-6.48,7-9.84,10.7-.33.49-.8,1.09-1.39,1.83a3,3,0,0,0-.56.89,23,23,0,0,0-1.75,3l-.9.35c-8.69,3.16-15.06,4.14-19.46,2.5s-5.59-4.75-3.49-9.47a13.39,13.39,0,0,1,3.61-4.89q2.75-2.57,5.63-5.81A40.08,40.08,0,0,0,317.4,101a18.54,18.54,0,0,0,2.17-9.49,14.36,14.36,0,0,0-5.06-10.65,76.83,76.83,0,0,0-11-8.15,43.78,43.78,0,0,0,2.16-7.21,39.82,39.82,0,0,0,.9-6.73c.06-2.19-1.34-4.36-4-6.22a23,23,0,0,0-8.76-3.77,16.18,16.18,0,0,0-8.59.35,4.64,4.64,0,0,0-3.4,5.32,13.55,13.55,0,0,0,4.77,9c2.87,2.62,6.58,5.73,11.06,9.41a60.37,60.37,0,0,1-7.93,12.56,46.12,46.12,0,0,1-13.16,10.93c.72-1.79.22-2.93-1.22-2.64s-3.06,1.48-4.62,3.52l.91.61a26.43,26.43,0,0,1-5.58,5.15,31.88,31.88,0,0,1-6.59,3.77c-2,.8-3.51.94-4.49.42s-.79-2.23.63-5.09,2.84-5.83,4.25-8.93,2.61-6,3.57-8.8A24.42,24.42,0,0,0,265,76.63,6.9,6.9,0,0,0,262.71,71a11.65,11.65,0,0,0-3.19-1.82,7.78,7.78,0,0,0-4.61-.26,13.24,13.24,0,0,0-5.54,3,31.78,31.78,0,0,0-6.16,7.9c-1.64,2.73-3.48,5.42-5.35,8a53.47,53.47,0,0,1-5.69,6.77,24.47,24.47,0,0,1-5.43,4.26c-1.71.93-3.12,1-4.18.31s-1.38-2.29-.85-5.08a48.48,48.48,0,0,1,2.95-9.36,72.52,72.52,0,0,1,5.46-10.47,44.84,44.84,0,0,1,6.8-8.58,28.9,28.9,0,0,1,7.17-4.94,34,34,0,0,1,8.42-2.93,16.92,16.92,0,0,1,7.33,0,5.28,5.28,0,0,1,4.08,3.58,4.41,4.41,0,0,0,1.5,2.56,2.31,2.31,0,0,0,2,.29,3.38,3.38,0,0,0,1.68-1.15,3.43,3.43,0,0,0,.83-1.72,7.88,7.88,0,0,0-1-3.75,14.93,14.93,0,0,0-3.18-4.17,21.54,21.54,0,0,0-5.92-3.81,30,30,0,0,0-9.49-2.26c-4.17-.39-9,.7-14.32,3.39A47.73,47.73,0,0,0,221.68,62a46.22,46.22,0,0,0-9.26,16.36,30.67,30.67,0,0,0-1.52,11.7,87,87,0,0,1-14.5,3.72,46.31,46.31,0,0,0-6.84-6.6A15.24,15.24,0,0,0,180.3,84a24.69,24.69,0,0,0-4.5.51q1.33-6.56,3.38-13.38a130.35,130.35,0,0,1,4.91-13.55l3.17-.56A96.45,96.45,0,0,0,204,50.91a55.75,55.75,0,0,0,11.55-7.39,38.49,38.49,0,0,0,7.23-8,44.8,44.8,0,0,0,4-7.55c2.07-5.08,2.12-9.13,0-12.13a14.74,14.74,0,0,0-9.49-5.87,28.73,28.73,0,0,0-13.83.78,29.08,29.08,0,0,0-12.64,7.17c-3.44,3.41-7.12,8.51-10.9,15.16a137.26,137.26,0,0,0-10,22.32,66.73,66.73,0,0,1-9,.62,33.77,33.77,0,0,1-8.34-1,18.93,18.93,0,0,1-5.12-1.85A15.17,15.17,0,0,1,144.75,51a4.21,4.21,0,0,1-1.31-2.55,5.69,5.69,0,0,0-2.23-.6,3.17,3.17,0,0,0-1.61.32c-.52.26-.74.81-.66,1.64a3.14,3.14,0,0,0,.22.79,13.94,13.94,0,0,0-3.34-2,18.93,18.93,0,0,0-6.6-1.37,29.28,29.28,0,0,0-9.59,1.47c-4.06,1.21-8.37,4.08-12.74,8.66A57.52,57.52,0,0,0,96.17,73.44a52.75,52.75,0,0,0-4.64,19.08,29.34,29.34,0,0,0,4.14,17.32c2,3.33,4.14,5.21,6.36,5.66a8.27,8.27,0,0,0,6.57-1.61,27.17,27.17,0,0,0,6.36-6.65,68.57,68.57,0,0,0,5.61-9.41,92,92,0,0,0,4.35-10.28,36.9,36.9,0,0,0,2.15-8.93q-.52,6-1.44,12.35t-1.13,11.68a20.3,20.3,0,0,0,1.08,8.47c.87,2.13,2.72,3,5.55,2.7a17.92,17.92,0,0,0,8.26-3.22,40.25,40.25,0,0,0,7.51-6.79A52.6,52.6,0,0,0,153.13,95c1.8-3.23,3.45-6.61,3.92-9.48.36-2.19-.43-3.22-1.8-2.35s-2.55,2.57-3.51,5.1l1,.24a31.92,31.92,0,0,1-4,7,38,38,0,0,1-5.32,6.1c-1.72,1.53-3.11,2.24-4.18,2.11s-1.3-1.81-.67-5.08,1.22-6.62,1.79-10.11,1-6.72,1.17-9.72a25.21,25.21,0,0,0-.51-7.92,5.89,5.89,0,0,0-3.6-4.45,10.38,10.38,0,0,0-3.49-.53,8.21,8.21,0,0,0-4.45,1.51,16,16,0,0,0-4.52,5,38.23,38.23,0,0,0-3.86,9.85c-.87,3.23-1.93,6.48-3,9.67a64.38,64.38,0,0,1-3.69,8.6,30.19,30.19,0,0,1-4.08,6.11c-1.39,1.54-2.72,2.11-3.88,1.89s-1.89-1.65-2.09-4.5a51,51,0,0,1,.44-10,81.05,81.05,0,0,1,2.53-12,52.86,52.86,0,0,1,4.29-10.74,34.75,34.75,0,0,1,5.56-7.43,39.56,39.56,0,0,1,7.26-6,18.06,18.06,0,0,1,7-2.82,4.52,4.52,0,0,1,4.78,1.85,3.73,3.73,0,0,0,2.07,1.86,2.38,2.38,0,0,0,2-.48,4.12,4.12,0,0,0,1.31-1.73,3.86,3.86,0,0,0,.36-2,3.82,3.82,0,0,0-.23-.73,18.71,18.71,0,0,0,3,2.17,29.57,29.57,0,0,0,6,2.53,24.72,24.72,0,0,0,7.11,1.07c3.34,0,7-.05,10.83-.28A177.53,177.53,0,0,0,163.76,77a126.64,126.64,0,0,0-2.53,17.66,122.88,122.88,0,0,0-.12,16.12,47.35,47.35,0,0,0,2.66,13.33c1.86,5.08,4.11,8.58,6.87,10.33a13.14,13.14,0,0,0,8.44,2.22,16.7,16.7,0,0,0,8.22-3.22,21.5,21.5,0,0,0,6-6.18,47,47,0,0,0,3.92-8.39,49.46,49.46,0,0,0,2.32-8.76,34.28,34.28,0,0,0,.44-7.93,13.61,13.61,0,0,0-1.68-6A28.93,28.93,0,0,0,210.19,93l1-.55a32.12,32.12,0,0,0,.83,3.94q1.65,5.91,4.64,7.82a8.21,8.21,0,0,0,6.68,1,23,23,0,0,0,7.74-3.89,57.07,57.07,0,0,0,7.72-6.82,75.19,75.19,0,0,0,6.73-8.11,32.76,32.76,0,0,0,4.31-7.67q-2,5.46-4.49,11.19c-1.65,3.83-3,7.4-4,10.67a20.33,20.33,0,0,0-1.11,8.47c.28,2.35,1.82,3.9,4.59,4.68a16.81,16.81,0,0,0,8.66.07,33.48,33.48,0,0,0,8.85-3.59,43.34,43.34,0,0,0,8.13-6c.69-.66,1.38-1.33,2-2,.55.28,1.56.2,3.05-.24a26.66,26.66,0,0,0,6.42-2.79,40.32,40.32,0,0,0,5.32-3.79,52.69,52.69,0,0,0,4.29-4q1.89-2,3.24-3.19a31.2,31.2,0,0,0,4-5.06,62,62,0,0,0,3.54-6.33l.76.28c2.86,2.56,4.33,5.07,4.45,7.45a14.1,14.1,0,0,1-1.89,7.4,45.07,45.07,0,0,1-5.74,8.09q-3.67,4.27-7.14,9.23c-2.31,3.31-3,6.57-2.17,9.75a16.53,16.53,0,0,0,5.19,8.26,26.15,26.15,0,0,0,21.29,5.85,83.46,83.46,0,0,0,8.4-2,8.9,8.9,0,0,0,.16,2,13.42,13.42,0,0,0,4.48,7.74,19.28,19.28,0,0,0,8.44,4.24,17.38,17.38,0,0,0,9.07-.06,58.64,58.64,0,0,0,9.68-3.66,32.68,32.68,0,0,0,5.89-3.55c1.27-1,1.89-1.83,1.83-2.35s-.88-.49-2.43.11l.16.31c-2.68,1.07-5.83,2.44-9.4,4.15A27.09,27.09,0,0,1,341,142.42a10,10,0,0,1-3.84-.93,4,4,0,0,1-2.05-2.65,7.38,7.38,0,0,1,.58-4.61A28.27,28.27,0,0,1,339.66,127.76ZM176.94,90c.47-.8,1.86-1.36,4.18-1.66v-.18a8.65,8.65,0,0,1,6.21,1.46A16,16,0,0,1,192,94.77a29.57,29.57,0,0,1-9-.34,13.3,13.3,0,0,1-5.19-2C176.73,91.59,176.46,90.79,176.94,90Zm36.39-74.84c2.56-1.39,4.81-1.87,6.72-1.46a4.62,4.62,0,0,1,3.68,3.42c.55,1.87.28,4.32-.77,7.35a35.71,35.71,0,0,1-6.09,10.12v.18a28.39,28.39,0,0,1-5.37,5.2,69.26,69.26,0,0,1-7.15,4.74q-3.89,2.25-7.94,4.14a54.92,54.92,0,0,1-7.81,3l-2.41.55a123.43,123.43,0,0,1,6.39-12.7,113.79,113.79,0,0,1,7.09-10.84,86.66,86.66,0,0,1,7-8.37A28.06,28.06,0,0,1,213.33,15.15Zm-18.87,95.18a33.18,33.18,0,0,1-5.24,14.37v.36c-3.36,5.28-6.07,8.15-8.3,8.57s-3.94-1-5.17-4.24-2-8-2.29-14.24A132,132,0,0,1,174.34,94a18.65,18.65,0,0,0,5.55,1.69c2.2.36,4.44.66,6.72.88,1.13.12,2.23.21,3.28.28s2.16.1,3.29.12A29.51,29.51,0,0,1,194.46,110.33Zm107.21-51.1a33.09,33.09,0,0,1-.81,4.78,38.63,38.63,0,0,1-1.92,5.89l-5.08-3.23a18.1,18.1,0,0,1-4-3.35l0,.18C287,60.36,286,58,287,56.29a6.18,6.18,0,0,1,4.83-3,12.25,12.25,0,0,1,6.71,1.07C300.75,55.4,301.83,57.06,301.67,59.23Z"/><text class="cls-13" transform="translate(106.78 164)">VE<tspan class="cls-14" x="43.76" y="0">T</tspan><tspan class="cls-15" x="66.04" y="0">ERI</tspan><tspan class="cls-16" x="121.15" y="0">NA</tspan><tspan class="cls-17" x="166.85" y="0">RIA</tspan></text><path d="M65.14,123.85l-3.79-3.51-1.46,2.51a9.13,9.13,0,0,1,1.61.51l-.36-.16a9.19,9.19,0,0,1,1.92,1.12,1.5,1.5,0,0,0,2-.54,1.54,1.54,0,0,0,.15-1.15l-.15-.36a1.4,1.4,0,0,0-.54-.54A9.77,9.77,0,0,0,60.68,120a1.5,1.5,0,0,0-1.46,2.5L63,126a1.5,1.5,0,1,0,2.12-2.12Z"/></svg>