<svg id="Capa_1" data-name="Capa 1" xmlns="http://www.w3.org/2000/svg" viewBox="0 0 640 480"><defs><style>.cls-1{fill:#c1c1c1;}</style></defs><title>userMesa de trabajo 1</title><path class="cls-1" d="M212.8,445.6c-4.65-1-9.38-1.67-13.94-3-29.19-8.22-47.64-30.73-48.93-61.37-1.33-31.65,2.15-62.85,14.17-92.49,7.77-19.14,19.05-35.69,38-45.8A74.8,74.8,0,0,1,239.31,234c4.12.08,8.47,2.17,12.23,4.22,6.07,3.3,11.7,7.4,17.59,11q51.39,31.72,102.77-.08c4.75-2.95,9.6-5.79,14.07-9.13,8.19-6.14,17.2-6.91,26.94-5.48,26.56,3.9,45.33,18.46,58,41.67,11.29,20.72,16.38,43.23,18.64,66.42a328.65,328.65,0,0,1,1.56,35.91c-.43,35.73-24.95,62.32-60.49,66.24a15.62,15.62,0,0,0-2.6.75Z"/><path class="cls-1" d="M416.59,134.5c.36,54-44.18,98.75-98.46,98.9s-98.94-44.57-99-98.39a98.71,98.71,0,0,1,98.27-99C372,35.61,416.25,79.56,416.59,134.5Z"/></svg>